<svg width="15" height="11" viewBox="0 0 15 11" fill="none" xmlns="http://www.w3.org/2000/svg">
<path d="M4.51999 10.29C4.29639 10.291 4.08121 10.205 3.92001 10.05L0.25998 6.52001C0.0968716 6.36353 0.0026442 6.14867 -0.00204419 5.92269C-0.00673258 5.69671 0.0785387 5.47813 0.235016 5.31502C0.391494 5.15192 0.606325 5.05763 0.832306 5.05294C1.05829 5.04825 1.27693 5.13352 1.44003 5.29L4.53 8.29L13.42 0.230003C13.502 0.151028 13.599 0.0893303 13.7054 0.0485756C13.8117 0.00782094 13.9251 -0.0111559 14.0388 -0.00724101C14.1526 -0.00332616 14.2645 0.0234074 14.3677 0.0713723C14.471 0.119337 14.5635 0.187571 14.6399 0.271995C14.7163 0.356419 14.775 0.455335 14.8124 0.562858C14.8498 0.670381 14.8653 0.784304 14.8578 0.89791C14.8504 1.01152 14.8202 1.12246 14.769 1.22417C14.7179 1.32588 14.6468 1.41629 14.56 1.49001L5.09 10.08C4.93235 10.2178 4.72937 10.2926 4.51999 10.29Z" fill="#5193D0"/>
</svg>
