<svg width="4" height="16" viewBox="0 0 4 16" fill="none" xmlns="http://www.w3.org/2000/svg">
<path d="M1.65657 3.33476C2.57146 3.33476 3.31313 2.58825 3.31313 1.66738C3.31313 0.746514 2.57146 0 1.65657 0C0.741669 0 0 0.746514 0 1.66738C0 2.58825 0.741669 3.33476 1.65657 3.33476Z" fill="#CECECD"/>
<path d="M1.65657 9.17738C2.57146 9.17738 3.31313 8.43087 3.31313 7.51C3.31313 6.58913 2.57146 5.84262 1.65657 5.84262C0.741669 5.84262 0 6.58913 0 7.51C0 8.43087 0.741669 9.17738 1.65657 9.17738Z" fill="#CECECD"/>
<path d="M1.65657 15.02C2.57146 15.02 3.31313 14.2735 3.31313 13.3526C3.31313 12.4318 2.57146 11.6852 1.65657 11.6852C0.741669 11.6852 0 12.4318 0 13.3526C0 14.2735 0.741669 15.02 1.65657 15.02Z" fill="#CECECD"/>
</svg>
