<svg width="8" height="9" viewBox="0 0 8 9" fill="none" xmlns="http://www.w3.org/2000/svg">
<path d="M6.55892 0.000150642C6.39691 0.000112107 6.24135 0.0639298 6.12555 0.177957C6.00974 0.291983 5.94296 0.447163 5.93944 0.610185V5.73433H2.16833L3.0303 4.93453C3.09364 4.88162 3.14561 4.81628 3.18303 4.7425C3.22046 4.66871 3.24255 4.58799 3.24797 4.50533C3.2534 4.42266 3.24205 4.33976 3.2146 4.26166C3.18715 4.18356 3.1442 4.11189 3.08834 4.05105C3.03247 3.99021 2.96485 3.94147 2.88966 3.90779C2.81446 3.8741 2.73324 3.85617 2.65094 3.85512C2.56864 3.85407 2.48701 3.86991 2.41099 3.90166C2.33497 3.93341 2.26616 3.98044 2.20877 4.03984L0.202053 5.89699C0.140033 5.9539 0.0901314 6.02289 0.0554043 6.09979C0.0206772 6.17669 0.00181546 6.25987 0 6.34432C0.00166788 6.51265 0.0694744 6.6735 0.188572 6.79169L2.06065 8.64885C2.17416 8.75632 2.32243 8.81891 2.47815 8.82508C2.64539 8.8234 2.80511 8.75515 2.92254 8.63528C3.03444 8.51897 3.09705 8.36339 3.09705 8.20148C3.09705 8.03957 3.03444 7.88404 2.92254 7.76772L2.11449 6.96793H6.5724C6.73313 6.96793 6.88726 6.90365 7.00092 6.78925C7.11458 6.67485 7.17847 6.51968 7.17847 6.35789V0.610185C7.17849 0.528922 7.16234 0.44846 7.13104 0.373551C7.09975 0.298643 7.05394 0.23077 6.99623 0.173944C6.93852 0.117118 6.87009 0.0724838 6.795 0.0426371C6.71991 0.0127904 6.63963 -0.00165519 6.55892 0.000150642Z" fill="#CECECD"/>
</svg>
