<svg width="18" height="19" viewBox="0 0 18 19" fill="none" xmlns="http://www.w3.org/2000/svg">
<path d="M16.87 2.8645H13.12C12.7566 2.01449 12.1516 1.2899 11.3801 0.78067C10.6085 0.271437 9.70446 0 8.78003 0C7.85559 0 6.95146 0.271437 6.17993 0.78067C5.4084 1.2899 4.80341 2.01449 4.44 2.8645H0.75C0.551088 2.8645 0.360318 2.94352 0.219666 3.08417C0.0790132 3.22482 0 3.41559 0 3.6145C0 3.81341 0.0790132 4.00418 0.219666 4.14484C0.360318 4.28549 0.551088 4.3645 0.75 4.3645H2.02002V15.9345C2.02002 16.5843 2.27815 17.2075 2.73761 17.6669C3.19707 18.1264 3.82019 18.3845 4.46997 18.3845H13.06C13.7107 18.3845 14.3349 18.1267 14.796 17.6675C15.257 17.2084 15.5174 16.5852 15.52 15.9345V4.3645H16.92C17.1189 4.3645 17.3097 4.28549 17.4503 4.14484C17.591 4.00418 17.67 3.81341 17.67 3.6145C17.67 3.41559 17.591 3.22482 17.4503 3.08417C17.3097 2.94352 17.1189 2.8645 16.92 2.8645H16.87ZM8.75 1.49451C9.26901 1.49468 9.78041 1.61913 10.2415 1.85748C10.7025 2.09583 11.0998 2.44114 11.4 2.8645H6.10999C6.40746 2.44071 6.80275 2.09491 7.26233 1.85641C7.72191 1.61792 8.23223 1.49378 8.75 1.49451ZM13.94 15.9345C13.9272 16.191 13.8162 16.4326 13.63 16.6095C13.4438 16.7864 13.1968 16.8848 12.94 16.8845H4.34998C4.10193 16.8724 3.86731 16.7684 3.69171 16.5928C3.51611 16.4172 3.41215 16.1826 3.40002 15.9345V4.3645H13.9L13.94 15.9345Z" fill="#A3A3A3"/>
<path d="M5.69001 6.74451C5.59115 6.74317 5.49304 6.76165 5.40144 6.79887C5.30983 6.83608 5.2266 6.89128 5.15668 6.96119C5.08677 7.0311 5.03155 7.11431 4.99433 7.20591C4.95712 7.29751 4.93866 7.39565 4.94001 7.49451V13.9945C4.94001 14.1934 5.01902 14.3842 5.15968 14.5248C5.30033 14.6655 5.4911 14.7445 5.69001 14.7445C5.88892 14.7445 6.07969 14.6655 6.22034 14.5248C6.361 14.3842 6.44001 14.1934 6.44001 13.9945V7.49451C6.44001 7.2956 6.361 7.10483 6.22034 6.96418C6.07969 6.82353 5.88892 6.74451 5.69001 6.74451Z" fill="#A3A3A3"/>
<path d="M8.75 6.74451C8.55109 6.74451 8.36032 6.82353 8.21967 6.96418C8.07901 7.10483 8 7.2956 8 7.49451V13.9945C8 14.1934 8.07901 14.3842 8.21967 14.5248C8.36032 14.6655 8.55109 14.7445 8.75 14.7445C8.94891 14.7445 9.13968 14.6655 9.28033 14.5248C9.42099 14.3842 9.5 14.1934 9.5 13.9945V7.49451C9.50135 7.39565 9.48289 7.29751 9.44568 7.20591C9.40846 7.11431 9.35324 7.0311 9.28333 6.96119C9.21341 6.89128 9.13018 6.83608 9.03857 6.79887C8.94697 6.76165 8.84886 6.74317 8.75 6.74451Z" fill="#A3A3A3"/>
<path d="M11.88 6.74451C11.7811 6.74317 11.683 6.76165 11.5914 6.79887C11.4998 6.83608 11.4166 6.89128 11.3467 6.96119C11.2768 7.0311 11.2215 7.11431 11.1843 7.20591C11.1471 7.29751 11.1287 7.39565 11.13 7.49451V13.9945C11.13 14.1934 11.209 14.3842 11.3497 14.5248C11.4903 14.6655 11.6811 14.7445 11.88 14.7445C12.0789 14.7445 12.2697 14.6655 12.4103 14.5248C12.551 14.3842 12.63 14.1934 12.63 13.9945V7.49451C12.63 7.2956 12.551 7.10483 12.4103 6.96418C12.2697 6.82353 12.0789 6.74451 11.88 6.74451Z" fill="#A3A3A3"/>
</svg>
