<svg width="13" height="13" viewBox="0 0 13 13" fill="none" xmlns="http://www.w3.org/2000/svg">
<path d="M3.44454 8.19252C3.36453 8.20405 3.2876 8.23155 3.21832 8.27344C3.14904 8.31533 3.08878 8.37075 3.04109 8.43643C2.9934 8.50212 2.95925 8.57673 2.94064 8.6559C2.92203 8.73506 2.91936 8.81719 2.93275 8.89741L3.14828 10.1446C2.34364 9.54193 1.74825 8.69922 1.44694 7.73634C1.14563 6.77346 1.15369 5.73945 1.46996 4.78144C1.78623 3.82344 2.39461 2.99022 3.20854 2.40034C4.02246 1.81046 5.00053 1.49397 6.0035 1.49588C6.16546 1.49234 6.31955 1.42508 6.43284 1.30852C6.54612 1.19196 6.60953 1.03536 6.60949 0.872298C6.60949 0.710511 6.54567 0.55536 6.43202 0.44096C6.31836 0.326559 6.16423 0.262285 6.0035 0.262285C4.76367 0.257339 3.55294 0.640416 2.53892 1.35849C1.5249 2.07657 0.757733 3.09413 0.343543 4.27036C-0.0706479 5.4466 -0.111349 6.72336 0.227062 7.92391C0.565473 9.12446 1.26619 10.1894 2.23239 10.9715L1.28969 11.1206C1.2101 11.1259 1.13234 11.147 1.06084 11.1826C0.989339 11.2182 0.925451 11.2676 0.872925 11.328C0.820399 11.3885 0.780192 11.4587 0.754636 11.5348C0.729081 11.6108 0.718669 11.6912 0.723975 11.7713C0.729281 11.8514 0.750267 11.9296 0.785626 12.0016C0.820986 12.0736 0.870026 12.1378 0.930056 12.1907C0.990086 12.2436 1.05992 12.2841 1.13548 12.3098C1.21104 12.3355 1.29091 12.346 1.3705 12.3406H1.42434L4.02365 11.9475C4.10269 11.9334 4.17805 11.9034 4.24519 11.8591C4.31233 11.8148 4.36982 11.7573 4.4142 11.6899C4.46177 11.6242 4.49582 11.5496 4.51432 11.4704C4.53282 11.3913 4.53543 11.3092 4.52196 11.229L4.10446 8.70765C4.07808 8.55442 3.99581 8.41664 3.87372 8.32134C3.75163 8.22604 3.59855 8.18009 3.44454 8.19252Z" fill="#7B7B7B"/>
<path d="M9.77444 1.37387L10.7172 1.22476C10.7972 1.21323 10.8741 1.18569 10.9434 1.1438C11.0126 1.1019 11.0729 1.04648 11.1206 0.9808C11.1683 0.915118 11.2024 0.8405 11.221 0.761335C11.2396 0.68217 11.2424 0.600068 11.229 0.519841C11.2025 0.361468 11.1162 0.219505 10.9882 0.123542C10.8603 0.0275799 10.7005 -0.0149874 10.5421 0.00470859L7.94281 0.411391C7.78684 0.44059 7.6474 0.527663 7.55219 0.655388C7.45747 0.788789 7.41874 0.954389 7.44442 1.11631L7.86201 3.65126C7.88721 3.79492 7.96163 3.92512 8.07236 4.01924C8.1831 4.11336 8.32307 4.16544 8.468 4.16639H8.56229C8.6423 4.15486 8.71923 4.12733 8.78851 4.08543C8.85779 4.04354 8.91805 3.98814 8.96574 3.92246C9.01342 3.85678 9.04758 3.78214 9.06619 3.70297C9.0848 3.62381 9.08747 3.54171 9.07408 3.46148L8.85863 2.21433C9.66327 2.81698 10.2586 3.65969 10.5599 4.62257C10.8612 5.58545 10.8531 6.61946 10.5369 7.57747C10.2206 8.53548 9.61222 9.36869 8.79829 9.95857C7.98436 10.5485 7.00638 10.8649 6.00342 10.863C5.84268 10.863 5.68847 10.9273 5.57481 11.0417C5.46116 11.1561 5.39734 11.3112 5.39734 11.473C5.3973 11.6361 5.4607 11.7927 5.57399 11.9093C5.68728 12.0258 5.84145 12.0931 6.00342 12.0966C7.24325 12.1016 8.45389 11.7185 9.46791 11.0004C10.4819 10.2823 11.2492 9.26475 11.6634 8.08851C12.0776 6.91227 12.1183 5.63555 11.7798 4.435C11.4414 3.23446 10.7406 2.16946 9.77444 1.38742V1.37387Z" fill="#7B7B7B"/>
</svg>
